<?xml version="1.0" encoding="UTF-8"?>
<svg id="Layer_2" xmlns="http://www.w3.org/2000/svg" version="1.1" viewBox="0 0 669.7 91.2">
  <!-- Generator: Adobe Illustrator 30.0.0, SVG Export Plug-In . SVG Version: 2.1.1 Build 123)  -->
  <defs>
    <style>
      .st0 {
        fill: #fff;
      }
    </style>
  </defs>
  <g id="Layer_2-2">
    <path class="st0" d="M46.3,90.4H0L51.5,0l7.8,13.6-36.7,63.7h15.5l13.4-23.2,8,12.9-13.2,23.5ZM59.4,40.7l7.9-13.3,7.2,12.5-7.5,13.4-7.6-12.7ZM89,90.4l-15.5-26.1,7.6-13,22.5,39.1h-14.6ZM147.3,49.7h-7.5l-1.9-3.8h-13.1s-1.9,3.8-1.9,3.8h-6.6l13.1-23.5h5.6l12.4,23.5ZM131.6,33.5l-4.7,8.8h9.2l-4.5-8.8ZM175.8,26.2v16.1c0,5.2-2.5,7.8-12.1,7.8s-12.1-2.6-12.1-7.8v-16.1h6.7v13c0,4.1,1.7,5.5,5.5,5.5s5.5-1.3,5.5-5.5v-13h6.7ZM189.2,49.7v-18.8h-7.7v-4.7h22.6v4.7h-7.7v18.8h-7.1ZM207.7,38c0-8.9,5.9-12.2,14.1-12.2s14.1,3.2,14.1,12.2-5.9,12.2-14.1,12.2-14.1-3.2-14.1-12.2M221.8,31.4c-4.4,0-7.2,2-7.2,6.6s2.7,6.6,7.2,6.6,7.2-2,7.2-6.6-2.7-6.6-7.2-6.6M241.3,49.7v-23.5h7.5l9.1,15.2,9.1-15.2h7.5v23.5h-6.4v-16.6h0l-8.7,16.6h-2.9l-8.7-16.6h0v16.6h-6.4ZM279.8,38c0-8.9,5.9-12.2,14.1-12.2s14.1,3.2,14.1,12.2-5.9,12.2-14.1,12.2-14.1-3.2-14.1-12.2M294,31.4c-4.4,0-7.2,2-7.2,6.6s2.7,6.6,7.2,6.6,7.2-2,7.2-6.6-2.7-6.6-7.2-6.6M319.5,49.7v-18.8h-7.7v-4.7h22.6v4.7h-7.7v18.8h-7.1ZM340.1,26.2h7.1v23.5h-7.1v-23.5ZM352,26.2h7.3l6.7,14.6,6.5-14.6h7l-11.6,23.9h-4.3l-11.6-23.9ZM383.9,49.7v-23.5h19.2v4.7h-12.1v4.6h10.4v4.7h-10.4v4.7h13v4.7h-20.1ZM421,49.7v-23.5h16c5.8,0,8.5,2.6,8.5,6.3s-3.5,5.5-7.3,6.4h0c2,.6,4.4,1.6,5.7,3.9l4,6.9h-8.2l-4-7.6c-.5-1-1.3-1.4-2.3-1.4h-5.5v9h-7ZM428,36.9h4.2c5,0,6.4-1,6.4-3.6s-1.4-3.2-4.6-3.2h-6.1v6.8ZM453.2,26.2h7.1v23.5h-7.1v-23.5ZM466,42.8c2.6,1.3,7.2,2.9,10.1,2.9s4.5-1,4.5-2.5c0-4-14.7-1.2-14.7-10s5-7.5,10-7.5,5.5.5,8.5,1.2l.7,5.7c-2.9-1.2-5.4-2.5-9.5-2.5s-3.8.6-3.8,2c0,4.1,14.7,1,14.7,10.1s-3.2,7.8-10.2,7.8-6.7-.5-9.7-1.1l-.5-6.2ZM491.4,49.7v-23.5h7v10.8l9.3-10.8h7.4l-9.6,10.7,13,12.8h-8.6l-11.5-11.2v11.2h-7ZM118.3,90.8v-23.5h7.5l9.1,15.2,9.1-15.2h7.5v23.5h-6.4v-16.6h0l-8.7,16.6h-2.9l-8.7-16.6h0v16.6h-6.4ZM186.5,90.8h-7.5l-1.9-3.8h-13.1s-1.9,3.8-1.9,3.8h-6.6l13.1-23.5h5.6l12.4,23.5ZM170.8,74.5l-4.7,8.8h9.2l-4.5-8.8ZM208.7,82.2h0v-14.9h6.4v23.5h-7.3l-10.8-14.7h0v14.7h-6.4v-23.5h7.2l11,14.9ZM250.3,90.8h-7.5l-1.9-3.8h-13.1s-1.9,3.8-1.9,3.8h-6.6l13.1-23.5h5.6l12.4,23.5ZM234.5,74.5l-4.7,8.8h9.2l-4.5-8.8ZM278,72.6c-3.1-.8-6.3-1.5-9.2-1.5-5.3,0-9.4,2.8-9.4,8s3.7,7.6,8.6,7.6,3.8-.2,5.5-.9v-3.3h-4.4v-4.3h10.3v11.4c-3.8,1.1-7.8,1.6-11.8,1.6-8.3,0-15.2-2.6-15.2-11.7s6.4-12.7,14.9-12.7,6.7.4,10.1,1.3l.5,4.5ZM286.3,90.8v-23.5h19.2v4.7h-12.1v4.6h10.4v4.7h-10.4v4.7h13v4.7h-20.1ZM312.4,90.8v-23.5h7.5l9.1,15.2,9.1-15.2h7.5v23.5h-6.4v-16.6h0l-8.7,16.6h-2.9l-8.7-16.6h0v16.6h-6.4ZM352.8,90.8v-23.5h19.2v4.7h-12.1v4.6h10.4v4.7h-10.4v4.7h13v4.7h-20.1ZM397.2,82.2h0v-14.9h6.4v23.5h-7.3l-10.8-14.7h0v14.7h-6.4v-23.5h7.2l10.9,14.9ZM416.9,90.8v-18.8h-7.7v-4.7h22.6v4.7h-7.7v18.8h-7.1ZM455,90.8h-7v-23.5h9.2c9.2,0,12,2.5,12,7.4s-2.3,7-9.7,7-3.1,0-4.6,0v9.1ZM455,77.8c.9,0,1.9,0,2.8,0,3.7,0,4.8-1.5,4.8-3.4s-1.1-3.4-4.8-3.4-1.9.1-2.8.2v6.5ZM499.4,90.8h-7.5l-1.9-3.8h-13.1s-2,3.8-2,3.8h-6.6l13.1-23.5h5.6l12.4,23.5ZM483.7,74.5l-4.7,8.8h9.2l-4.5-8.8ZM503.5,90.8v-23.5h16c5.8,0,8.5,2.6,8.5,6.3s-3.5,5.5-7.3,6.4h0c2,.6,4.3,1.6,5.7,3.9l4,6.9h-8.2l-4-7.6c-.5-1-1.3-1.4-2.3-1.4h-5.5v9h-7ZM510.4,77.9h4.2c5,0,6.4-1,6.4-3.6s-1.4-3.2-4.6-3.2h-6.1v6.8ZM540.8,90.8v-18.8h-7.7v-4.7h22.6v4.7h-7.7v18.8h-7.1ZM579.3,82.2h0v-14.9h6.4v23.5h-7.3l-10.8-14.7h0v14.7h-6.4v-23.5h7.2l11,14.9ZM593,90.8v-23.5h19.2v4.7h-12.1v4.6h10.4v4.7h-10.4v4.7h13v4.7h-20.1ZM619.3,90.8v-23.5h16c5.8,0,8.5,2.6,8.5,6.3s-3.5,5.5-7.3,6.4h0c2,.6,4.3,1.6,5.7,3.9l4,6.9h-8.2l-4-7.6c-.5-1-1.3-1.4-2.3-1.4h-5.5v9h-7ZM626.2,77.9h4.2c5,0,6.4-1,6.4-3.6s-1.4-3.2-4.6-3.2h-6.1v6.8ZM649.2,83.8c2.6,1.3,7.2,2.9,10.1,2.9s4.5-1,4.5-2.5c0-4-14.7-1.2-14.7-10s5-7.5,10-7.5,5.5.5,8.5,1.2l.7,5.7c-2.9-1.2-5.4-2.5-9.5-2.5s-3.8.6-3.8,2c0,4.1,14.7,1,14.7,10.1s-3.2,7.8-10.2,7.8-6.7-.5-9.7-1.1l-.5-6.2Z"/>
  </g>
</svg>